<svg xmlns="http://www.w3.org/2000/svg" viewBox="0 0 632.46 349"><defs><style>.cls-1{fill:#fff;}.cls-2{fill:#05c6c6;}</style></defs><title>IcoLogo_1</title><g id="Calque_2" data-name="Calque 2"><g id="Calque_1-2" data-name="Calque 1"><g id="Calque_2-2" data-name="Calque 2"><rect class="cls-1" x="93.5" y="150.5" width="14.5" height="201.5" transform="translate(352 150.5) rotate(90)"/><rect class="cls-1" x="201.41" y="195.26" width="15" height="153.74"/><rect class="cls-2" x="399.29" y="-218.17" width="15" height="451.34" transform="translate(414.29 -399.29) rotate(90)"/><path class="cls-1" d="M60.66,139.34l-12,36.46H33.14L72.52,59.88H90.58L130.14,175.8h-16l-12.39-36.46Zm38-11.7L87.32,94.28c-2.58-7.57-4.3-14.45-6-21.16H81c-1.72,6.88-3.61,13.93-5.85,21L63.75,127.64Z"/><path class="cls-2" d="M146.14,115.09c0-8.6-.17-15.65-.69-22.53h13.42l.86,13.76h.34c4.13-7.92,13.76-15.66,27.52-15.66,11.53,0,29.41,6.88,29.41,35.44v49.7H201.87v-48c0-13.42-5-24.6-19.26-24.6-10,0-17.72,7-20.3,15.48a21.69,21.69,0,0,0-1,7L161,349H146Z"/><path class="cls-1" d="M259.14,68.65V92.56h21.68v11.52H259.14V149c0,10.32,2.93,16.17,11.36,16.17a34,34,0,0,0,8.77-1l.69,11.35c-2.93,1.2-7.57,2.06-13.42,2.06-7.05,0-12.73-2.23-16.34-6.36-4.3-4.47-5.85-11.87-5.85-21.67V104.08h-12.9V92.56h12.9v-20Z"/><path class="cls-1" d="M372.15,133.49c0,30.79-21.33,44.2-41.45,44.2-22.54,0-39.91-16.51-39.91-42.82,0-27.87,18.23-44.21,41.28-44.21C356,90.66,372.15,108,372.15,133.49Zm-66,.86c0,18.23,10.49,32,25.28,32,14.45,0,25.29-13.59,25.29-32.33,0-14.11-7.05-32-24.94-32S306.1,118.53,306.1,134.35Z"/><path class="cls-1" d="M408.1,69.16c.17,5.16-3.62,9.29-9.64,9.29a9,9,0,0,1-9.11-9.29,9.22,9.22,0,0,1,9.46-9.46C404.48,59.7,408.1,63.83,408.1,69.16ZM391.24,175.8V92.56h15.14V175.8Z"/><path class="cls-1" d="M431.49,115.09c0-8.6-.17-15.65-.69-22.53h13.41l.87,13.76h.34c4.13-7.92,13.76-15.66,27.52-15.66,11.52,0,29.41,6.88,29.41,35.44v49.7H487.21v-48c0-13.42-5-24.6-19.26-24.6-10,0-17.71,7-20.29,15.48a21.68,21.68,0,0,0-1,7V175.8H431.49Z"/><path class="cls-1" d="M535.37,136.93c.35,20.47,13.42,28.9,28.55,28.9,10.84,0,17.38-1.89,23.05-4.3l2.58,10.83c-5.33,2.41-14.45,5.16-27.69,5.16-25.63,0-40.93-16.85-40.93-42s14.79-44.9,39-44.9c27.17,0,34.4,23.91,34.4,39.22a57.25,57.25,0,0,1-.52,7.05Zm44.38-10.83c.17-9.64-4-24.6-21-24.6-15.3,0-22,14.1-23.22,24.6Z"/></g></g></g></svg>